# xmcd
#
# Track frame offsets:
#	150
#	81657
#	94252
#	106184
#	114019
#	158261
#	181316
#	183696
#	194134
#	205951
#	224131
#	231564
#	233606
#
# Disc length: 3265 seconds
# Revision: 0
# Processed by: cddbd v1.5.2PL0 Copyright (c) Steve Scherf et al.
# Submitted via: dBpowerAMP V12.0
#
DISCID=b90cbf0d
DTITLE=Hale Dwoskin - The Inner Circle Retreat 02 CD 10
DYEAR=2007
DGENRE=Speech
TTITLE0=Obstructions to Awareness - The Leap of Faith
TTITLE1=Love and Hate toward Your Family
TTITLE2=Release on People We Love to Hate
TTITLE3=The Primal Feeling is Kill or Be Killed
TTITLE4=Release on Anger
TTITLE5=Sharing
TTITLE6=Summary of Release
TTITLE7=Politicians
TTITLE8=Look into Your Eyes
TTITLE9=About Doing the Exercise
TTITLE10=Wanting to Destroy
TTITLE11=About Using It on Yourself
TTITLE12=If There is More Anger
EXTD=
EXTT0=
EXTT1=
EXTT2=
EXTT3=
EXTT4=
EXTT5=
EXTT6=
EXTT7=
EXTT8=
EXTT9=
EXTT10=
EXTT11=
EXTT12=
PLAYORDER=
